<svg width="226"
    height="274"
    viewBox="0 0 226 274"
    fill="none"
    xmlns="http://www.w3.org/2000/svg">
    <g clip-path="url(#clip0_14_52)">
        <path
            d="M113 0.25293V24.3779L13 79.5V196.5L112.5 254L212.5 196.5V72.5L169 50.3008V34.3262L225.166 68.5V205.5L112.583 274L0 205.5V68.5L112.583 0L113 0.25293Z"
            fill="#FFCF00" />
        <path
            d="M213 92V179H168V75.5L213 92Z"
            fill="#FFCF00" />
        <path
            d="M213 88V178.5H191.836L213 166.5L193 89L116 50.5L42 89V182.5L116 221.5L127.464 214.999L135.512 223.442L113 236.5L27 188.5V82.5L115 38L213 88Z"
            fill="#FFCF00" />
        <path
            opacity="0.8"
            d="M109.37 111C114.026 111 118.618 112.035 123.145 114.104L121.302 120.506C117.357 118.695 113.541 117.79 109.855 117.79C106.169 117.79 103.195 119.213 100.932 122.059C98.6684 124.904 97.5362 129.01 97.5361 134.377C97.5361 139.744 98.6033 143.819 100.737 146.6C102.206 148.457 104.007 149.693 106.14 150.31C106.14 150.208 106.141 150.105 106.141 150.003C106.141 139.658 106.004 134.041 105.73 133.152C105.48 132.241 104.819 131.557 103.748 131.102C102.062 130.372 101.219 129.598 101.219 128.777C101.219 127.957 102.495 127.547 105.047 127.547H107.098L108.089 127.581L111.165 127.615C116.678 127.615 119.436 128.026 119.437 128.846C119.437 129.119 118.627 130.042 117.01 131.614C116.098 132.503 115.438 134.03 115.027 136.194C114.684 138.092 114.493 142.809 114.454 150.343C116.418 149.991 118.313 149.423 120.138 148.636L122.562 154.65C119.836 155.836 117.133 156.657 114.454 157.118C114.488 164.073 114.622 167.922 114.856 168.665C115.153 169.531 115.825 170.135 116.873 170.477C117.511 170.682 118.764 170.784 120.633 170.784C124.666 170.784 127.685 170.26 129.69 169.212C130.83 168.619 132.06 167.4 133.382 165.555C134.703 163.709 135.729 162.786 136.458 162.786C137.21 162.786 137.586 163.265 137.586 164.222V165.11C137.586 170.123 136.97 173.188 135.74 174.305C135.057 174.92 130.909 175.228 123.299 175.228H122.273L121.248 175.193H116.155C108.067 175.193 103.703 175.136 103.064 175.022C101.88 174.817 101.287 174.316 101.287 173.519C101.288 173.177 101.903 172.573 103.133 171.707C104.386 170.841 105.195 169.599 105.56 167.981C105.844 166.777 106.021 163.228 106.097 157.334C101.548 156.683 97.7244 154.624 94.626 151.158C90.8754 146.89 89 141.296 89 134.377C89 127.522 90.8754 121.896 94.626 117.499C98.4412 113.166 103.356 111 109.37 111Z"
            fill="#F8EAB3" />
    </g>
    <defs>
        <clipPath id="clip0_14_52">
            <rect
                width="225.166"
                height="274"
                fill="white" />
        </clipPath>
    </defs>
</svg>
